<svg width="60" height="60" viewBox="0 0 60 60" fill="none" xmlns="http://www.w3.org/2000/svg">
<rect width="60" height="60" rx="15" fill="#3B3B3B"/>
<path d="M12 21.045V43.463C12 44.1958 12.7144 44.6968 13.3713 44.4249L20.8528 40.8979C21.5531 40.5678 22 39.8631 22 39.0889V18.4934C22 17.068 20.5514 16.1001 19.2345 16.6456L13.2575 19.1218C12.8864 19.2755 12.5682 19.5409 12.3441 19.8837C12.1199 20.2265 12.0001 20.631 12 21.045ZM24 38.9318C24 39.7848 24.541 40.5439 25.3473 40.8223L33.3473 43.5842C34.6462 44.0326 36 43.0678 36 41.6937V21.0682C36 20.2152 35.459 19.4561 34.6527 19.1777L26.6527 16.4158C25.3538 15.9674 24 16.9322 24 18.3063V38.9318ZM46.6287 15.5751L39.1472 19.1021C38.4469 19.4322 38 20.1369 38 20.9111V41.5066C38 42.932 39.4486 43.8999 40.7655 43.3544L46.7425 40.8782C47.1137 40.7246 47.4319 40.4592 47.656 40.1164C47.8802 39.7736 48 39.3691 48 38.955V16.537C48 15.8042 47.2856 15.3032 46.6287 15.5751Z" fill="#FF5151"/>
</svg>
