<svg width="48" height="48" viewBox="0 0 48 48" fill="none" xmlns="http://www.w3.org/2000/svg">
<rect x="0.15" y="0.15" width="47.7" height="47.7" rx="23.85" fill="#2751F5"/>
<path d="M9.49057 15.5501L9.49058 15.5501L13.1433 14.0826C14.4574 13.5546 15.8889 14.5222 15.8889 15.9384V31.0015C15.8889 31.7842 15.4323 32.495 14.7205 32.8204L9 35.4358V16.2804C9 16.2803 9 16.2802 9 16.2801C9.00008 16.1221 9.04728 15.9682 9.13499 15.8381C9.22271 15.7079 9.34674 15.6079 9.49057 15.5501ZM38.5096 32.4498L38.5094 32.4499L34.8567 33.9174C33.5426 34.4454 32.1111 33.4778 32.1111 32.0616V16.9985C32.1111 16.2158 32.5677 15.505 33.2795 15.1796L39 12.5642V31.7199C39 31.8779 38.9528 32.0319 38.8651 32.162C38.7774 32.2921 38.6534 32.3921 38.5096 32.4498ZM21.0317 32.6659C20.2163 32.3929 19.6667 31.6292 19.6667 30.7693V15.6682C19.6667 14.3019 21.0061 13.3379 22.3017 13.7716L26.9683 15.3341C27.7837 15.6071 28.3333 16.3708 28.3333 17.2307V32.3318C28.3333 33.6981 26.9939 34.6621 25.6983 34.2284L21.0317 32.6659Z" stroke="#EFEFEF" stroke-width="2"/>
<rect x="0.15" y="0.15" width="47.7" height="47.7" rx="23.85" stroke="#171717" stroke-width="0.3"/>
</svg>
