<svg width="26" height="26" viewBox="0 0 26 26" fill="none" xmlns="http://www.w3.org/2000/svg">
<path d="M25.025 10.5H19.5V3.9375C19.5 3.41953 19.0637 3 18.525 3H12.675C12.1363 3 11.7 3.41953 11.7 3.9375V6.75H9.1V3.625C9.1 3.27969 8.80912 3 8.45 3H7.8C7.44087 3 7.15 3.27969 7.15 3.625V6.75H4.55V3.625C4.55 3.27969 4.25912 3 3.9 3H3.25C2.89087 3 2.6 3.27969 2.6 3.625V6.75H0.975C0.436312 6.75 0 7.16953 0 7.6875V21.75C0 22.4402 0.582156 23 1.3 23H24.7C25.4178 23 26 22.4402 26 21.75V11.4375C26 10.9195 25.5633 10.5 25.025 10.5ZM5.2 18.7812C5.2 19.0402 4.98184 19.25 4.7125 19.25H3.0875C2.81816 19.25 2.6 19.0402 2.6 18.7812V17.2188C2.6 16.9598 2.81816 16.75 3.0875 16.75H4.7125C4.98184 16.75 5.2 16.9598 5.2 17.2188V18.7812ZM5.2 15.0312C5.2 15.2902 4.98184 15.5 4.7125 15.5H3.0875C2.81816 15.5 2.6 15.2902 2.6 15.0312V13.4688C2.6 13.2098 2.81816 13 3.0875 13H4.7125C4.98184 13 5.2 13.2098 5.2 13.4688V15.0312ZM5.2 11.2812C5.2 11.5402 4.98184 11.75 4.7125 11.75H3.0875C2.81816 11.75 2.6 11.5402 2.6 11.2812V9.71875C2.6 9.45977 2.81816 9.25 3.0875 9.25H4.7125C4.98184 9.25 5.2 9.45977 5.2 9.71875V11.2812ZM10.4 18.7812C10.4 19.0402 10.1818 19.25 9.9125 19.25H8.2875C8.01816 19.25 7.8 19.0402 7.8 18.7812V17.2188C7.8 16.9598 8.01816 16.75 8.2875 16.75H9.9125C10.1818 16.75 10.4 16.9598 10.4 17.2188V18.7812ZM10.4 15.0312C10.4 15.2902 10.1818 15.5 9.9125 15.5H8.2875C8.01816 15.5 7.8 15.2902 7.8 15.0312V13.4688C7.8 13.2098 8.01816 13 8.2875 13H9.9125C10.1818 13 10.4 13.2098 10.4 13.4688V15.0312ZM10.4 11.2812C10.4 11.5402 10.1818 11.75 9.9125 11.75H8.2875C8.01816 11.75 7.8 11.5402 7.8 11.2812V9.71875C7.8 9.45977 8.01816 9.25 8.2875 9.25H9.9125C10.1818 9.25 10.4 9.45977 10.4 9.71875V11.2812ZM16.9 15.0312C16.9 15.2902 16.6818 15.5 16.4125 15.5H14.7875C14.5182 15.5 14.3 15.2902 14.3 15.0312V13.4688C14.3 13.2098 14.5182 13 14.7875 13H16.4125C16.6818 13 16.9 13.2098 16.9 13.4688V15.0312ZM16.9 11.2812C16.9 11.5402 16.6818 11.75 16.4125 11.75H14.7875C14.5182 11.75 14.3 11.5402 14.3 11.2812V9.71875C14.3 9.45977 14.5182 9.25 14.7875 9.25H16.4125C16.6818 9.25 16.9 9.45977 16.9 9.71875V11.2812ZM16.9 7.53125C16.9 7.79023 16.6818 8 16.4125 8H14.7875C14.5182 8 14.3 7.79023 14.3 7.53125V5.96875C14.3 5.70977 14.5182 5.5 14.7875 5.5H16.4125C16.6818 5.5 16.9 5.70977 16.9 5.96875V7.53125ZM23.4 18.7812C23.4 19.0402 23.1818 19.25 22.9125 19.25H21.2875C21.0182 19.25 20.8 19.0402 20.8 18.7812V17.2188C20.8 16.9598 21.0182 16.75 21.2875 16.75H22.9125C23.1818 16.75 23.4 16.9598 23.4 17.2188V18.7812ZM23.4 15.0312C23.4 15.2902 23.1818 15.5 22.9125 15.5H21.2875C21.0182 15.5 20.8 15.2902 20.8 15.0312V13.4688C20.8 13.2098 21.0182 13 21.2875 13H22.9125C23.1818 13 23.4 13.2098 23.4 13.4688V15.0312Z" fill="#FF5151"/>
</svg>
