<svg width="26" height="26" viewBox="0 0 26 26" fill="none" xmlns="http://www.w3.org/2000/svg">
<g clip-path="url(#clip0_330_59)">
<path d="M23.1562 23.9375H2.84375C1.54932 23.9375 0.5 22.8882 0.5 21.5938V4.40625C0.5 3.11182 1.54932 2.0625 2.84375 2.0625H23.1562C24.4507 2.0625 25.5 3.11182 25.5 4.40625V21.5938C25.5 22.8882 24.4507 23.9375 23.1562 23.9375ZM6.75 6.35938C5.67134 6.35938 4.79688 7.23384 4.79688 8.3125C4.79688 9.39116 5.67134 10.2656 6.75 10.2656C7.82866 10.2656 8.70312 9.39116 8.70312 8.3125C8.70312 7.23384 7.82866 6.35938 6.75 6.35938ZM6.75 11.0469C5.67134 11.0469 4.79688 11.9213 4.79688 13C4.79688 14.0787 5.67134 14.9531 6.75 14.9531C7.82866 14.9531 8.70312 14.0787 8.70312 13C8.70312 11.9213 7.82866 11.0469 6.75 11.0469ZM6.75 15.7344C5.67134 15.7344 4.79688 16.6088 4.79688 17.6875C4.79688 18.7662 5.67134 19.6406 6.75 19.6406C7.82866 19.6406 8.70312 18.7662 8.70312 17.6875C8.70312 16.6088 7.82866 15.7344 6.75 15.7344ZM20.8125 9.09375V7.53125C20.8125 7.20767 20.5501 6.94531 20.2266 6.94531H10.4609C10.1374 6.94531 9.875 7.20767 9.875 7.53125V9.09375C9.875 9.41733 10.1374 9.67969 10.4609 9.67969H20.2266C20.5501 9.67969 20.8125 9.41733 20.8125 9.09375ZM20.8125 13.7812V12.2188C20.8125 11.8952 20.5501 11.6328 20.2266 11.6328H10.4609C10.1374 11.6328 9.875 11.8952 9.875 12.2188V13.7812C9.875 14.1048 10.1374 14.3672 10.4609 14.3672H20.2266C20.5501 14.3672 20.8125 14.1048 20.8125 13.7812ZM20.8125 18.4688V16.9062C20.8125 16.5827 20.5501 16.3203 20.2266 16.3203H10.4609C10.1374 16.3203 9.875 16.5827 9.875 16.9062V18.4688C9.875 18.7923 10.1374 19.0547 10.4609 19.0547H20.2266C20.5501 19.0547 20.8125 18.7923 20.8125 18.4688Z" fill="#3B3B3B"/>
</g>
<defs>
<clipPath id="clip0_330_59">
<rect width="25" height="25" fill="white" transform="translate(0.5 0.5)"/>
</clipPath>
</defs>
</svg>
